<?xml version="1.0" standalone="no"?>
<!DOCTYPE svg PUBLIC "-//W3C//DTD SVG 20010904//EN"
 "http://www.w3.org/TR/2001/REC-SVG-20010904/DTD/svg10.dtd">
<svg version="1.0" xmlns="http://www.w3.org/2000/svg"
 width="1583.000000pt" height="1583.000000pt" viewBox="0 0 1583.000000 1583.000000"
 preserveAspectRatio="xMidYMid meet">
<metadata>
Created by potrace 1.11, written by Peter Selinger 2001-2013
</metadata>
<g transform="translate(0.000000,1583.000000) scale(0.100000,-0.100000)"
fill="#000000" stroke="none">
<path d="M7259 15825 c-2 -1 -56 -6 -119 -10 -63 -3 -128 -8 -145 -10 -16 -2
-57 -7 -90 -10 -107 -12 -202 -24 -225 -30 -8 -2 -37 -6 -65 -10 -27 -3 -57
-8 -65 -10 -8 -2 -31 -6 -51 -9 -277 -41 -801 -188 -1129 -318 -287 -114 -645
-288 -702 -342 -58 -55 -85 -103 -105 -186 -2 -8 -4 -34 -4 -57 -3 -180 146
-333 324 -334 36 -1 76 2 89 6 13 4 104 46 203 95 238 117 458 208 690 285
158 53 443 134 529 151 11 2 44 8 71 14 97 20 245 46 306 55 25 3 57 8 70 10
13 2 44 7 69 9 85 9 155 16 205 21 222 22 658 22 885 0 19 -2 67 -6 105 -10
39 -3 85 -8 103 -11 17 -2 49 -6 70 -9 118 -17 301 -49 407 -71 38 -9 78 -17
87 -19 128 -27 545 -152 633 -190 17 -7 68 -27 115 -45 393 -151 844 -400
1200 -663 99 -74 278 -214 295 -232 6 -6 44 -40 85 -76 100 -86 337 -321 442
-439 528 -595 924 -1310 1142 -2068 34 -117 79 -296 90 -355 2 -15 7 -35 10
-45 5 -18 6 -22 32 -167 16 -94 18 -108 29 -190 3 -27 8 -59 10 -70 2 -11 7
-56 10 -100 3 -44 8 -91 10 -105 22 -130 23 -792 1 -905 -2 -11 -7 -58 -11
-105 -3 -47 -8 -92 -10 -100 -2 -8 -7 -35 -10 -60 -3 -25 -8 -56 -10 -70 -2
-14 -7 -45 -10 -70 -4 -25 -11 -65 -16 -90 -6 -25 -13 -63 -16 -85 -3 -22 -23
-112 -45 -200 -22 -88 -41 -169 -44 -181 -16 -84 -179 -546 -238 -679 -144
-319 -248 -517 -399 -755 -104 -165 -292 -428 -362 -506 -5 -7 -28 -33 -50
-60 -617 -739 -1445 -1309 -2360 -1624 -102 -35 -308 -98 -337 -104 -7 -2 -33
-8 -58 -15 -25 -7 -52 -15 -60 -16 -8 -2 -44 -10 -80 -19 -36 -8 -81 -18 -100
-21 -19 -3 -51 -10 -70 -15 -19 -5 -51 -11 -70 -14 -19 -3 -75 -12 -125 -20
-49 -8 -112 -18 -140 -21 -27 -3 -68 -8 -90 -11 -51 -6 -96 -11 -220 -21 -122
-10 -684 -10 -780 0 -38 4 -97 10 -130 12 -33 3 -76 8 -95 10 -19 3 -55 7 -80
10 -44 6 -366 61 -405 69 -705 156 -1321 420 -1900 814 -369 251 -678 524
-1007 889 -29 32 -197 239 -266 328 -90 115 -263 382 -367 566 -55 96 -215
414 -215 427 0 5 6 9 13 9 6 0 46 7 87 16 41 9 100 21 130 26 30 6 66 13 80
16 63 13 183 37 208 41 72 13 332 65 374 75 53 12 53 15 3 71 -17 18 -80 89
-140 158 -61 69 -124 141 -141 160 -17 19 -132 150 -254 290 -210 241 -332
380 -355 404 -6 6 -37 42 -70 81 -61 70 -112 129 -130 149 -9 10 -172 196
-246 281 -42 48 -197 224 -260 295 -32 36 -68 78 -82 93 l-24 29 -52 -149
c-28 -81 -53 -155 -55 -163 -4 -13 -59 -176 -74 -220 -3 -8 -6 -19 -8 -25 -2
-5 -17 -50 -35 -100 -17 -49 -105 -306 -194 -570 -90 -264 -223 -653 -295
-865 -73 -212 -134 -393 -137 -404 -5 -16 -1 -18 33 -13 43 6 76 12 144 27 25
5 56 12 70 14 14 3 117 23 230 45 113 23 216 43 230 46 14 2 81 16 149 30 68
14 125 24 127 22 1 -1 25 -52 53 -114 273 -605 627 -1143 1060 -1612 272 -295
533 -531 836 -756 173 -129 402 -281 543 -361 502 -287 890 -453 1411 -604 41
-12 81 -23 90 -26 9 -2 32 -8 51 -13 60 -15 264 -63 290 -67 14 -2 36 -7 50
-9 82 -17 89 -18 190 -35 55 -9 81 -13 175 -25 28 -4 61 -9 75 -11 14 -2 56
-6 95 -10 38 -3 80 -7 93 -9 160 -25 828 -25 1042 0 19 2 68 6 109 10 41 3 77
8 80 9 3 2 35 7 71 10 66 7 115 14 160 22 14 2 41 7 60 10 81 12 344 68 455
95 934 233 1809 695 2535 1339 218 194 501 490 686 720 333 414 599 855 840
1395 50 114 191 495 200 544 3 14 7 28 10 33 10 16 89 298 100 357 3 14 7 28
9 31 8 13 73 344 93 475 25 155 28 182 46 358 6 48 15 187 21 297 5 97 6 456
0 540 -11 178 -17 268 -20 295 -2 17 -7 57 -10 90 -4 33 -8 71 -10 85 -2 14
-6 48 -9 75 -3 28 -8 61 -11 75 -4 23 -9 53 -21 125 -2 17 -6 41 -9 55 -3 14
-7 40 -10 57 -3 18 -12 63 -21 100 -9 38 -18 79 -21 93 -20 112 -103 409 -166
595 -49 144 -136 375 -147 390 -4 6 -17 37 -30 70 -13 33 -60 137 -106 232
-237 495 -566 987 -939 1403 -72 81 -398 404 -483 480 -626 555 -1394 988
-2189 1235 -126 40 -450 127 -517 139 -12 2 -59 12 -106 21 -47 9 -98 19 -115
21 -16 3 -52 9 -80 14 -27 5 -70 12 -95 15 -25 3 -52 8 -60 10 -20 5 -166 20
-295 30 -38 3 -83 8 -100 11 -33 6 -721 15 -726 9z"/>
<path d="M3849 14495 c-70 -14 -103 -32 -186 -102 -175 -147 -455 -423 -499
-490 -83 -130 -64 -301 46 -411 86 -86 216 -118 330 -83 77 24 99 41 248 190
70 69 188 180 262 247 170 152 195 193 195 323 0 74 -4 94 -29 143 -68 138
-219 214 -367 183z"/>
<path d="M5423 13624 c-148 -43 -269 -170 -303 -319 -8 -33 -12 -187 -11 -450
0 -382 1 -403 21 -465 37 -111 120 -209 218 -257 30 -14 52 -32 53 -42 0 -9 1
-102 1 -208 l1 -191 -314 -419 c-172 -230 -315 -420 -319 -423 -17 -14 -140
-192 -163 -235 -51 -95 -82 -206 -86 -305 -6 -128 -3 -2946 3 -2985 13 -89 19
-113 42 -172 104 -260 327 -437 594 -470 36 -5 605 -8 1265 -8 l1200 0 24 -40
c64 -106 205 -250 326 -330 220 -146 438 -209 695 -201 137 5 159 8 270 37
133 35 199 66 490 234 107 62 211 122 230 133 35 19 278 160 440 255 47 27
105 61 130 75 309 175 833 482 882 516 69 49 184 157 237 223 325 409 339 994
33 1422 -42 60 -171 197 -217 231 -167 124 -302 188 -495 235 -79 19 -331 28
-415 14 -84 -13 -229 -55 -300 -87 -33 -14 -150 -78 -260 -141 -110 -63 -213
-122 -230 -131 -16 -10 -73 -42 -125 -73 -52 -31 -96 -54 -99 -51 -2 2 -5 313
-7 692 -1 378 -4 696 -7 707 -49 191 -65 216 -491 784 l-386 514 0 207 0 207
52 24 c67 31 158 119 192 186 50 99 53 135 51 568 -2 433 -4 445 -59 540 -52
88 -154 172 -239 196 -23 7 -49 14 -57 17 -8 2 -640 5 -1404 6 -1388 1 -1389
1 -1463 -20z m2864 -300 c62 -46 63 -51 63 -464 0 -357 -1 -377 -20 -408 -11
-18 -34 -41 -52 -52 -33 -20 -53 -20 -1403 -20 -1272 0 -1373 1 -1395 17 -78
54 -78 53 -76 478 1 350 2 372 21 403 11 19 36 42 55 53 34 18 84 18 1407 16
1370 -2 1372 -2 1400 -23z m-256 -1243 l25 -1 0 -145 0 -145 -678 0 c-648 0
-680 -1 -716 -19 -49 -25 -76 -73 -76 -133 0 -52 19 -86 68 -122 27 -21 36
-21 751 -22 399 0 726 -2 728 -5 2 -2 173 -229 379 -505 389 -519 428 -581
419 -659 -1 -7 -688 -10 -2044 -9 -1123 1 -2049 2 -2059 3 -15 1 -15 6 2 61
10 33 30 80 44 105 15 24 198 273 408 552 210 279 390 523 399 541 15 28 17
66 18 264 0 137 4 234 9 237 8 5 2189 6 2323 2z m909 -2663 l0 -603 -97 -55
c-140 -80 -178 -101 -278 -160 -49 -29 -108 -62 -130 -75 -224 -127 -461 -268
-506 -302 -85 -63 -202 -186 -268 -282 l-59 -86 -1393 0 -1394 0 -1 1083 -1
1082 2064 0 2063 0 0 -602z m1613 -233 c332 -51 602 -280 712 -600 48 -141 54
-342 16 -490 -44 -166 -152 -344 -270 -443 -31 -26 -58 -50 -61 -53 -5 -6
-189 -115 -270 -161 -54 -30 -263 -151 -419 -242 -62 -36 -117 -66 -122 -66
-5 0 -18 17 -29 38 -11 20 -30 53 -42 72 -12 19 -31 53 -43 75 -13 22 -71 123
-130 225 -59 102 -117 201 -128 220 -88 155 -474 823 -493 852 l-24 37 28 19
c15 10 81 49 147 87 66 38 201 116 300 174 224 131 367 205 436 226 117 37
273 48 392 30z m-1510 -762 c24 -43 54 -94 65 -113 11 -19 60 -105 110 -190
202 -351 442 -767 548 -949 l113 -195 -72 -41 c-40 -23 -148 -86 -242 -140
-93 -54 -183 -106 -200 -115 -16 -10 -91 -53 -165 -95 -74 -43 -167 -93 -207
-112 -354 -164 -798 -56 -1044 253 -89 112 -156 260 -182 401 -14 71 -15 241
-2 298 47 221 149 402 296 525 51 42 278 185 339 213 8 4 22 11 30 17 8 5 53
32 100 59 47 27 105 60 130 75 25 14 81 46 125 72 149 85 173 99 181 107 18
18 35 2 77 -70z m-1556 -885 c-36 -143 -37 -366 -3 -511 l13 -57 -1146 0
c-743 1 -1162 4 -1191 11 -155 35 -287 163 -331 319 -7 25 -13 93 -15 153 l-3
107 1341 0 1340 0 -5 -22z"/>
<path d="M6070 11770 c-46 -24 -73 -72 -74 -131 -1 -82 60 -142 144 -142 57 0
91 19 127 72 24 35 25 94 3 141 -29 65 -132 95 -200 60z"/>
<path d="M6802 9600 c-18 -11 -41 -34 -52 -52 -18 -31 -20 -51 -20 -274 l0
-240 -232 1 c-129 0 -244 -4 -258 -9 -119 -46 -132 -205 -23 -268 26 -16 60
-18 271 -18 l242 -1 0 -237 c0 -265 4 -286 69 -329 65 -44 166 -19 207 50 16
29 18 56 19 272 l0 240 239 2 c221 3 241 4 276 24 100 57 96 205 -8 255 -32
16 -67 18 -269 18 -128 0 -234 3 -234 6 -1 3 -2 111 -3 240 -2 222 -3 238 -23
270 -43 69 -133 91 -201 50z"/>
<path d="M542 1312 l3 -1266 225 1 c124 1 227 2 230 2 3 1 5 374 5 831 -1 456
0 830 2 830 4 0 43 -63 75 -120 21 -37 208 -355 595 -1012 l46 -78 78 0 78 0
88 148 c48 81 93 157 100 170 7 13 50 87 96 165 130 219 200 339 218 372 9 17
58 100 108 184 50 85 91 159 91 164 0 4 4 6 8 3 4 -3 8 -376 8 -830 -1 -727 1
-826 14 -827 19 -1 420 -1 440 0 13 1 15 147 14 1254 -1 688 -2 1257 -3 1263
-1 8 -76 11 -249 11 l-248 0 -114 -195 c-63 -108 -147 -250 -186 -316 -225
-385 -448 -763 -457 -774 -8 -11 -12 -10 -20 5 -6 10 -47 81 -92 158 -46 77
-92 156 -103 175 -11 19 -115 197 -232 395 -117 198 -224 380 -238 405 -14 25
-40 68 -57 96 l-33 51 -246 0 -246 0 2 -1265z"/>
<path d="M6766 2571 c-2 -3 -2 -204 -2 -446 1 -242 1 -443 -1 -447 -2 -3 -26
18 -55 48 -143 151 -363 219 -609 188 -233 -30 -413 -142 -556 -346 -126 -181
-185 -395 -178 -648 4 -167 34 -290 105 -435 127 -263 324 -421 585 -471 67
-12 261 -13 315 0 137 31 245 89 336 181 30 29 55 50 57 47 2 -4 2 -47 2 -95
-1 -52 2 -90 8 -94 15 -9 418 -10 423 -1 7 10 5 2508 -1 2518 -6 9 -424 10
-429 1z m-371 -1105 c211 -50 348 -251 347 -510 -1 -134 -37 -248 -108 -341
-50 -66 -80 -91 -149 -124 -185 -89 -391 -58 -529 82 -97 98 -146 224 -147
384 -2 357 261 585 586 509z"/>
<path d="M7704 2456 c-2 -6 -3 -551 -2 -1210 l3 -1200 357 1 c409 1 471 5 597
38 218 57 415 183 557 356 246 301 337 728 242 1134 -107 458 -424 774 -873
872 -91 20 -874 28 -881 9z m701 -117 c349 -9 666 -209 838 -529 159 -297 176
-693 42 -1017 -59 -140 -137 -254 -246 -358 -155 -148 -342 -234 -564 -259
-31 -4 -525 -9 -632 -6 l-23 0 0 1085 0 1084 78 3 c75 3 348 1 507 -3z"/>
<path d="M14080 1259 c0 -1144 1 -1209 18 -1210 20 -2 73 -2 87 0 8 1 11 141
10 437 0 240 2 437 5 439 5 3 128 -115 545 -522 127 -124 260 -255 297 -291
l67 -65 86 -1 87 -1 -224 220 c-124 121 -332 325 -463 453 -131 128 -235 236
-231 240 15 15 482 497 516 532 19 20 94 97 165 171 l130 134 -84 3 -84 3 -65
-68 c-36 -37 -176 -183 -312 -323 -136 -140 -287 -297 -335 -347 -48 -51 -90
-91 -94 -89 -3 2 -6 339 -6 748 l1 744 -58 1 -58 0 0 -1208z"/>
<path d="M4175 1915 c-111 -15 -159 -28 -249 -68 -329 -145 -528 -471 -535
-877 -2 -99 16 -233 45 -331 79 -268 299 -494 567 -584 302 -101 621 -61 872
108 63 43 205 182 205 201 0 6 -77 59 -171 118 l-172 107 -44 -43 c-185 -183
-527 -179 -713 7 -64 65 -144 221 -117 229 7 2 295 3 640 3 491 -1 630 1 638
11 12 14 15 243 4 314 -11 74 -36 188 -49 225 -88 236 -223 398 -415 495 -108
54 -190 76 -316 86 -38 3 -77 6 -85 8 -8 1 -55 -3 -105 -9z m196 -409 c160
-20 287 -142 334 -318 l13 -48 -433 0 -434 0 18 53 c31 89 61 139 120 197 64
64 122 95 212 114 60 12 84 12 170 2z"/>
<path d="M12738 1819 c-127 -30 -267 -104 -377 -199 -37 -32 -38 -31 30 -82
33 -24 39 -26 50 -12 26 31 184 128 245 150 81 30 101 34 202 41 320 22 520
-202 517 -581 l0 -89 -265 -3 c-146 -2 -274 -5 -285 -8 -11 -2 -49 -7 -85 -11
-35 -4 -74 -11 -87 -16 -13 -5 -23 -7 -23 -4 0 2 -24 -3 -52 -11 -215 -63
-334 -172 -377 -346 -64 -263 69 -516 321 -609 73 -27 109 -32 218 -33 116 0
160 6 251 38 134 47 248 130 351 256 l36 45 0 -110 c0 -60 1 -128 1 -150 l1
-40 52 0 c29 0 55 3 58 7 8 10 4 1133 -4 1218 -27 289 -179 489 -417 549 -99
25 -258 25 -361 0z m664 -898 c4 0 6 -88 4 -193 -2 -192 -2 -193 -32 -250 -81
-158 -246 -286 -424 -329 -66 -16 -85 -18 -171 -19 -92 -2 -133 7 -214 45
-155 73 -236 213 -221 377 11 125 75 221 185 281 70 39 223 75 344 83 56 4
103 7 104 8 2 2 414 -1 425 -3z"/>
<path d="M9730 1791 c0 -11 578 -1733 584 -1738 9 -10 118 -8 126 2 6 8 49
153 85 285 19 70 78 281 85 305 12 37 50 172 55 194 2 9 32 113 65 231 53 186
94 330 103 365 2 6 9 34 17 63 15 58 26 66 36 25 3 -16 17 -66 31 -113 13 -47
26 -92 28 -100 2 -8 52 -184 110 -390 58 -206 108 -382 110 -390 2 -8 31 -111
64 -228 34 -117 61 -220 61 -228 0 -8 6 -17 13 -20 28 -10 108 -10 121 0 7 6
144 401 304 879 l291 867 -64 0 -63 0 -38 -112 c-20 -62 -131 -392 -246 -733
-115 -341 -211 -627 -213 -635 -6 -28 -26 -73 -29 -69 -2 2 -27 87 -56 189
-28 102 -55 199 -61 215 -5 17 -27 95 -49 175 -22 80 -46 165 -54 190 -7 25
-60 210 -117 412 l-104 368 -52 0 -52 0 -26 -87 c-34 -114 -53 -180 -65 -223
-6 -19 -71 -251 -146 -515 -132 -470 -154 -547 -191 -672 l-19 -61 -259 779
-260 779 -62 0 c-35 0 -63 -4 -63 -9z"/>
</g>
</svg>
