<svg version="1" xmlns="http://www.w3.org/2000/svg" width="1365.333" height="1365.333" viewBox="0 0 1024.000000 1024.000000"><path d="M456.8 9.5c-.2.2-3 .6-6.3.9l-17.5 2c-10.2 1.4-12.7 1.7-14 2.1-.8.3-3.3.7-5.5 1.1-2.2.3-4.3.8-4.6 1-.3.2-2.1.6-4 .9-11.5 2-38.5 10-53.5 15.8-18.8 7.3-44.5 19.6-48.2 23-4.1 3.8-6.6 9.7-6.5 15.7 0 8.7 4.6 15.5 12.8 19.1 6.6 2.9 12.8 1.8 26.3-5.1 16.2-8.1 43.2-18.9 51.5-20.5.9-.2 2.1-.6 2.5-.9.5-.3 1.9-.7 3.3-1 2.1-.5 7.8-1.9 11.9-3.1 5.8-1.6 17.8-3.9 37-7.1 16.3-2.6 69.5-2.6 86.1.1 1.3.2 5.6.8 9.4 1.4 3.9.6 8.1 1.3 9.5 1.6 1.4.2 5 1 8 1.6 22.5 4.5 53 15 76 26.1 35.1 17 62.4 36.3 90.1 63.8 13.7 13.6 18.7 19 25.1 27.1 2.5 3.2 5.3 6.7 7.8 9.7 6.3 7.4 24.5 37.1 32.3 52.7 12.3 24.6 24.1 59.7 28.6 85 .6 3.3 1.3 7.1 1.6 8.4.7 3.6 2.4 16.6 3.3 24.6.9 9.2.9 52.8-.1 63-.4 4.4-1.5 12.3-2.3 17.5-.9 5.2-1.8 10.8-2.1 12.5-2.4 16.2-13.4 52.3-21 69.5-29.5 66.6-75.2 119.1-135.3 155.5-10.8 6.6-35.1 18.9-45.5 23-3.8 1.5-8.3 3.3-10 4-8.4 3.5-32 10.6-43.6 13-4.1.9-8.3 1.9-9.4 2.1-2.6.6-7.3 1.5-11 2-3.7.4-10 1.3-14 2-17.5 2.6-60 2.6-81.5-.1-61.8-7.9-122.9-33.8-169.5-71.9-10.4-8.6-12.4-10.4-26.5-24.6-20.5-20.4-31.5-34-46.4-57.4-7.8-12.2-23.3-41.6-21.9-41.6.4 0 4-.7 7.8-1.5 3.9-.8 8.4-1.6 10-1.9 1.7-.3 9.8-1.9 18-3.6 8.3-1.7 16.6-3.3 18.5-3.6 1.9-.3 3.7-.8 3.9-1 .5-.5-2.2-4.4-5.6-7.9-2.6-2.7-11.4-12.7-18.9-21.4-1.6-1.9-3.4-3.9-3.9-4.5-.6-.6-4.2-4.7-8-9.1-3.9-4.4-7.2-8.2-7.5-8.5-.3-.3-3.4-3.9-7-8s-6.7-7.7-7-8c-.3-.3-8.2-9.3-17.5-20-9.4-10.7-17.7-20.2-18.5-21.1-2.5-2.6-12.4-14.1-13.7-15.8-1.7-2.4-.4-5.7-14 34.4C90.1 499.5 75 544 75 544.5c0 .4 1.1.2 9.5-1.5 2.8-.6 6.1-1.2 7.5-1.5 1.4-.3 3.6-.7 5-1 2.6-.6 5.7-1.2 10-2 1.4-.3 3.6-.7 5-1 1.4-.3 4.8-1 7.5-1.5 2.8-.6 6.1-1.2 7.5-1.5 7.7-1.6 11-1.7 11-.4 0 2.3 16.7 35.4 23 45.4 3.3 5.3 6 9.8 6 10 0 .6 11.4 16.8 16.8 24 42.3 55.9 97.9 98.1 163.7 124.3 22.7 9 55.1 18 77 21.2 3.9.6 8.1 1.3 9.5 1.5 2.5.4 7.9 1 17.6 2 21.2 2.3 54.1 1.8 76.9-1 16.3-2 18.7-2.4 32-5.1 15.3-3.2 14.1-2.9 23-5.4 4.2-1.2 8.4-2.3 9.3-2.5.9-.2 3.7-1.1 6.2-2 2.5-.9 5.2-1.8 6-2 2.2-.5 16-5.5 19.5-7.1 1.7-.7 5.3-2.2 8-3.2 10.1-4 34.4-16.3 45.8-23.3 2.6-1.6 5-2.9 5.3-2.9.2 0 1-.5 1.7-1 .7-.6 5.5-3.9 10.9-7.4 12-8 20.2-14.2 35.7-27.1 14.9-12.4 34.8-33.2 49-51 26.4-33.2 47.7-72.1 61.5-112.4 4-11.6 8.2-25.5 9.1-29.9.2-.9 1-4.4 1.8-7.7.9-3.3 2.1-8.7 2.6-12 .6-3.3 1.3-6.9 1.5-8 .5-2.8 1.5-9.3 2.1-13.7.3-2.1.7-5.3.9-7 1.6-11.9 2.1-22.4 2.1-45.3-.1-26.4-.5-34.2-3-50-.3-2.2-.7-5.4-.9-7-3-22.9-14.9-65.5-24.1-86-.7-1.6-3.2-7.3-5.5-12.5-23.7-53.9-64-104.5-114.5-143.8-40.2-31.2-94.1-56.4-146-68.1-12.7-2.8-14.5-3.2-25-4.7-2.7-.3-5.9-.8-7-1-2.1-.4-6.2-.9-15.5-2-5.6-.7-63.6-1.5-64.2-.9z"/><path d="M250.9 93c-4.3 1.2-7.1 3-13.9 8.9-10.8 9.3-27.7 26.4-29.2 29.6-7 14.1 3.1 30.7 18.8 30.7 6.7 0 10.8-2.5 22.6-14 6.2-6 13.3-12.7 15.8-14.8 6.5-5.7 8-7.4 10.1-11.9 3-6.6 2.2-14.3-2.3-20.7-4.1-6-14.9-9.8-21.9-7.8zM349.1 148.3c-5.7 2-11.5 7.2-15.2 13.2-2.4 4-2.4 4.3-2.6 32.5-.3 28-.3 28.6 2 33.5 3.1 6.6 6.7 10.7 11.4 13 2.1 1.1 4 2.3 4.3 2.7.3.4.5 6.5.5 13.5l-.1 12.8-24.2 32.2c-13.3 17.8-25 34-26.1 36.1-5.5 10.8-5.4 7.8-5.3 109.2 0 51.4.3 95.5.6 98 2.1 18.1 17.3 34.7 35.6 38.9 2.9.7 32.2 1.1 82.3 1.1 45.9 0 77.7.4 77.7.9 0 1.2 8.6 11.9 12.5 15.4 14.2 13.1 32.4 20 51.9 19.6 17.1-.4 24.1-2.8 47.6-16.4 7.4-4.3 20.7-11.9 29.5-17l19.5-11.3c43.2-24.5 58.5-33.9 64.9-39.8 16-14.9 24.3-34.5 23.6-56.2-.4-11.4-.9-14.5-3.9-22.7-11-30.4-38.6-49.7-71.1-49.6-6.8.1-8.6.3-15 1.8-1.6.4-3.2.7-3.5.8-4.7.9-14.9 5.9-32.6 16-12 6.9-21.9 12.3-22.1 12.1-.2-.2-.4-19.3-.4-42.5 0-45.1-.3-48.5-5.3-58.1-1.2-2.5-13.1-19-26.4-36.7l-24.1-32.2v-12.9l.1-12.8 3.4-1.9c5-2.7 10.4-8.4 12.7-13.5 1.9-4.2 2.1-6.4 2.1-32 .1-24.1-.1-28.1-1.7-32.1-2.2-5.8-8.7-12.6-14.7-15.3-4.4-2-5.6-2.1-93.7-2.1-84.9-.1-89.5 0-94.2 1.8zm183 19.6l2.9 2.9v49.4l-2.9 2.9-2.9 2.9H355.3l-2.6-2.5c-1.3-1.4-2.7-3.6-2.9-4.8-.2-1.2-.3-12.2-.3-24.4.1-23.5.6-26 4.9-28.1 1.4-.7 31.2-1.1 88.4-1.1l86.4-.1 2.9 2.9zm-16.6 77c.7.1 1.1 3.7 1.1 9.1l.1 9h-5.6c-3.1.1-22.9.2-43.9.3l-38.4.2-2.4 2.8c-3.2 3.7-3.2 8.7 0 12.4l2.4 2.8 46.2.1c25.4.1 46.3.4 46.5.5 2.4 2.7 46.8 62.6 47.8 64.6.8 1.6 1.7 4.2 2 6l.6 3.1H312.8l.5-2.6c1-5.1 2.5-7.7 9.8-17.7 4.1-5.5 7.9-10.7 8.6-11.5.7-.8 9.1-12 18.8-24.9 15.8-21.2 17.5-23.8 17.6-27.5v-15.1c0-6 .4-11.2.9-11.5.6-.4 142.1-.5 146.5-.1zm56.1 130.3c.7.8 1 74.6.3 75.1-.2.2-8.5 5-18.4 10.8-9.9 5.7-19.2 11.1-20.6 11.9-1.4.8-6.2 3.5-10.5 6-10.3 5.7-14 8.3-18.9 12.9-5.9 5.7-10 10.3-12.9 15L488 511H312.5v-67.8c-.1-53.2.2-67.8 1.2-68.2 1.9-.8 257.1-.6 257.9.2zM677 427.6c1.9.4 3.7.8 4 .9 7.1 2.3 16.6 7.6 21.2 11.8 13.6 12.3 19.5 26.7 18.5 45.2-1.1 20.1-10.7 34.9-30 46.3-4.5 2.6-8.9 5.1-9.7 5.5-.8.4-8.7 4.9-17.5 10.1-8.8 5.1-16.1 9.3-16.2 9.2-.1-.1-20.7-35.8-24.3-42.1-2.5-4.4-3-5.3-18.4-31.9-7-12-12.5-22-12.3-22.2.8-.8 42.7-24.9 48-27.6 6.7-3.4 10.5-4.7 16.7-5.5 2.5-.3 4.6-.6 4.8-.8.5-.4 11.7.4 15.2 1.1zm-94.8 53.5c3.5 6 7 12.2 7.9 13.7.9 1.5 2.8 4.9 4.3 7.7 1.6 2.7 3.2 5.4 3.6 6 .4.5 1.9 3 3.2 5.5 1.4 2.5 8.1 14.2 15 26s13 22.5 13.7 23.7c1 2 .8 2.5-2.6 4.6-10.5 6.7-49.5 28.6-54.3 30.4-35.9 14.2-75.3-12.9-75.3-51.7 0-14.8 5-27.2 15.4-38.5 3.5-3.8 17.4-13.4 22.9-15.8.8-.4 9.8-5.6 20-11.6s18.8-11 19.2-11c.4-.1 3.6 4.9 7 11zm-102 51.3c-1.2 5.2-.7 28.9.6 31.3.9 1.6.9 2.2-.1 2.5-.6.2-33.8.4-73.7.3l-72.5-.1-5.1-2.3c-10.2-4.5-16.3-13.9-16.8-25.9-.2-3.7-.1-7.2.1-7.8.3-.8 24.5-1.1 84.3-1.1l83.9.1-.7 3z"/><path d="M390.3 265.4c-3.6 3-4.5 6.3-2.7 10.4 1.7 4.1 4.9 6.1 9.1 5.7 6.3-.6 10.2-6.5 7.8-12.1-1.6-3.8-3.6-5.4-7.7-6-2.7-.5-4.1-.1-6.5 2zM436.4 402.2l-3.4 3v31.5l-14.2-.2c-15.7-.1-19.7.8-21.7 5.2-1.8 4-1.3 7.3 1.8 10.4 3.2 3.2 3.6 3.2 24.4 2.9l9.7-.1V486l2.8 3c2.5 2.8 4.3 3.4 9.5 2.8 1.1-.1 2.9-1.4 4-3.1 2-2.6 2.2-4.2 2.3-17.5.1-8.1.2-15 .3-15.4.1-.4 5.8-.7 12.9-.7h15.4c3.9-.1 7.7-3.9 8.4-8.4.4-3.2.1-4.1-2.5-6.7-1.6-1.7-4-3-5.3-3.1-1.3-.1-8.1-.2-15.3-.4-7.1-.1-13.2-.3-13.5-.4-.3 0-.5-6.5-.4-14.4.1-15.6-.3-17.8-4-20.2-4.2-2.8-7.5-2.6-11.2.7zM43.2 922.6l.3 79.6 13.6.1c7.4 0 14-.2 14.5-.6.6-.3 1-19.6.9-52.1 0-28.4.2-51.6.5-51.6s10.5 17 22.6 37.8l22.2 37.7 4.3.3c2.4.1 4.9-.1 5.4-.5.6-.5 3-4.2 5.4-8.3 2.4-4.1 7.8-13.4 12.1-20.5 4.2-7.2 12.1-20.6 17.6-29.9l9.9-16.8.3 52.1c.2 48.7.3 52.1 2 52.2 2.5.1 22.2.1 25.2 0l2.5-.1-.1-78.7c-.1-43.4-.2-79.1-.3-79.6-.1-.4-7.1-.6-15.7-.5l-15.7.3-23.6 40.2c-13 22.1-23.9 40.2-24.2 40.3-.5 0-22.1-36-32.9-54.9-.9-1.4-4.7-7.9-8.5-14.4L74.6 843H43l.2 79.6zM435.2 868.7c0 14.2-.1 27-.1 28.5-.1 2.7-.1 2.7-4.7-1.8-7.7-7.7-18-11.3-31.1-10.9-9.3.3-13.8 1.2-20.9 4.6-14.7 6.9-26 22.3-29.8 40.5-5.6 26.8 4.6 54.9 24.6 67.7 7.5 4.9 14 6.9 23.7 7.5 13.9.8 24.1-2.4 33.1-10.5 2.8-2.5 5-4.1 5.1-3.6.1.4.1 3.3 0 6.3l-.1 5.5 12.3-.2c6.7-.1 12.9-.2 13.9-.2 1.5-.1 1.6-6.3 1.7-79.6V843h-27.6l-.1 25.7zm-17.9 46.2c9.8 4.8 15.9 15.2 16.3 28.3.9 24.1-16.9 39.2-38.6 32.6-8.6-2.6-17-12-18.9-21.2-.7-3.8-.6-17.2.2-20.5 2.3-8.8 10.2-17.7 18-20.4 6.2-2.2 17.3-1.6 23 1.2zM506.4 849.8l-12.1.3V926l-.1 76 2.7.1c10.2.4 44.5.1 48.7-.4 6.9-.9 19.3-5 25.6-8.6 7.3-4.2 16-12.1 21.3-19.6 4.5-6.2 9.9-17 10.9-21.6.3-1.3 1.2-5.3 2-8.9 2-9 2-24.2.1-33.5-3.3-16-9.4-28.2-19.3-38.3-7.4-7.5-11.7-10.6-20.5-14.7-13.3-6.1-25.8-7.5-59.3-6.7zm37.8 8.6c10.8 1.4 20.8 5.4 28.8 11.4 5.1 3.9 14 13.3 14 14.9 0 .7.3 1.3.8 1.3 1.4 0 7.1 12.4 9.2 20.3 10.4 38-10.8 77.9-45.7 86.4-8.1 1.9-49.2 2.6-49.4.8-.1-1.4-.1-131.5 0-133.7.1-.9 1.1-1.8 2.4-2 4-.6 34.4-.1 39.9.6zM895.9 850.4c-.7.7-.3 150.2.4 151.3.3.5 1.6.9 2.9.7 1.3-.1 2.6-.3 3.1-.3.4-.1.7-12.5.7-27.6 0-15.1.3-27.5.6-27.5s9.4 8.7 20.2 19.4c38.2 37.6 36 35.8 41.4 36 2.7.1 4.8-.2 4.8-.6 0-.4-7.1-7.7-15.7-16.2-8.7-8.5-21.5-21-28.5-27.8l-12.6-12.4 12-12.4c6.6-6.9 18.1-18.8 25.5-26.4 11.1-11.4 13.2-14.1 11.7-14.6-1-.4-3.4-.4-5.5 0-3 .6-5.7 2.8-15 12.5-6.3 6.5-17.6 18.1-25.1 25.9l-13.7 14.1-.1-47.3V850h-3.3c-1.9 0-3.6.2-3.8.4zM263.8 886.4c-15 4.4-27.4 14.9-34.2 28.8-4.7 9.6-6.4 17.6-6.4 29.8-.1 30.7 18.3 53.6 47.4 59.1 5.9 1.1 21.3.8 26.3-.4 5.8-1.5 10-3.1 14.9-5.9 6-3.4 17.2-13.3 17.2-15.3 0-.7-3.9-3.6-8.7-6.5-4.9-2.9-9.5-5.9-10.4-6.7-1.4-1.2-2.3-.8-6.5 2.7-16.4 13.5-41.9 7.7-49.8-11.4-.9-2.2-1.4-4.1-1.2-4.3.3-.3 18.5-.5 40.5-.5 37 0 40.1-.1 40.6-1.7.3-1 .3-6.5.1-12.3-1.1-28.2-15-48.1-38.6-55.2-9.1-2.8-22.1-2.9-31.2-.2zm28.5 26.6c2.7 1.4 6.1 4 7.6 6 2.7 3.4 6.1 10.9 6.1 13.3 0 1-6 1.2-26.4 1.2-14.6 0-26.7-.3-27.1-.6-1.2-1.3 4.3-11.6 8.2-15.4 5.6-5.4 11.2-7.4 19.8-7.1 5.1.1 8.3.8 11.8 2.6zM815 889.7c-5.8.9-15.3 4.9-21.6 9.2-3.7 2.6-6.9 5.1-7.1 5.8-.2.6.9 2 2.5 3.2l2.9 2.1 2.9-2.6c1.6-1.3 6.2-4.1 10.2-6.1 6.3-3.2 8.4-3.7 15.7-3.9 9.4-.4 14.3.9 20.4 5.3 7.1 5.1 11.7 15.4 12.4 27.8.6 9.4 1.2 9-14.8 9.1-36.3.1-50.9 5.3-57.8 20.4-2.8 6.3-2.8 18.8 0 25.2 3.9 8.7 11.9 15.5 21.8 18.6 8.7 2.7 23.7.7 33.4-4.3 4.8-2.6 16.1-12.7 16.1-14.6 0-.5.4-.9.8-.9s.8 4.2.7 9.2c0 8.3.2 9.3 1.8 9.2.9-.1 2.5-.2 3.6-.3 1.8-.1 1.8-1.6 1.6-38.8-.1-21.4-.6-40.8-1-43.3-1.7-9.8-7.7-19.9-14.6-24.4-7-4.7-20.3-7.3-29.9-5.9zm38.5 69c-.1 14-1.8 18.6-9.6 26.2-8.3 8.1-18.5 12-31 12.1-16 0-28.4-12.5-26.4-26.8.9-6.6 2.7-10.3 7-14 7.5-6.7 16.9-8.7 41.3-9.1l18.7-.3v11.9zM622 892.7c0 1.6 36.4 108.9 37.2 109.4.9.6 6.7.3 7.4-.3.2-.3 1.8-5.4 3.4-11.4 1.7-6 3.8-13.2 4.6-15.9 2.4-8.2 15.5-54.6 17.1-60.5 1.4-5.4 2.9-8.3 3-5.8 0 1.6.4 3 9.8 36.3 4 14.3 9.2 32.7 11.5 41 2.3 8.2 4.6 15.4 5.1 15.9 1.6 1.8 7 1.2 8.2-.9.5-1 8.8-25.1 18.2-53.5 9.5-28.3 17.6-52.3 18-53.3.7-1.6.3-1.8-3.5-1.5l-4.3.3-16.1 48.2c-8.8 26.6-16.3 48.3-16.6 48.3-.3 0-4-12.7-8.3-28.3-4.4-15.5-8.1-28.9-8.4-29.7-.4-.8-.7-2-.9-2.7-.1-.7-1.6-6.1-3.3-12-1.8-5.9-3.9-13.3-4.7-16.3-.9-3-1.7-6.1-2-6.8-.2-.6-1.9-1.2-3.7-1.2-3.4 0-3.4 0-5.7 8.2-1.3 4.6-3 10.5-3.7 13.3-.8 2.7-1.9 6.6-2.4 8.5-.5 1.9-1.2 4.2-1.4 5-.2.8-3.6 12.5-7.4 26-3.8 13.5-7.6 26.6-8.4 29.3-1.6 5.1-1.7 5.3-1.7 6.4-.1 2.2-3.1-6.2-17.5-49.5L629.8 892h-3.9c-2.1 0-3.9.3-3.9.7z"/></svg>